<?xml version="1.0" encoding="iso-8859-1"?>
<!-- Generator: Adobe Illustrator 19.0.0, SVG Export Plug-In . SVG Version: 6.00 Build 0)  -->
<svg version="1.1" id="Capa_1" xmlns="http://www.w3.org/2000/svg" xmlns:xlink="http://www.w3.org/1999/xlink" x="0px" y="0px"
	 viewBox="0 0 499.36 499.36" style="enable-background:new 0 0 499.36 499.36;" xml:space="preserve">
<path style="fill:#AFB8C9;" d="M411.896,368.176c3.12-11.832,5.032-24.152,5.6-36.816l-4.408-48
	c-8.88-38.072-30.152-71.432-59.312-95.584l-8.096-8.416l32-32l12.152,7.992c46.512,41.04,75.848,101.096,75.848,168.008l0,0
	c0,40.872-10.952,79.192-30.072,112.184l-6.544,10.24L401.68,387.36L411.896,368.176z"/>
<path style="fill:#8C95A4;" d="M217.68,443.36h240c17.672,0,32,14.328,32,32v16h-304v-16
	C185.68,457.688,200.008,443.36,217.68,443.36z"/>
<rect x="236.794" y="155.685" transform="matrix(-0.7071 0.7071 -0.7071 -0.7071 591.2916 202.2164)" style="fill:#AFB8C9;" width="33.944" height="135.767"/>
<path style="fill:#8C95A4;" d="M389.832,155.352l-12.152-7.992l-32,32l8.096,8.416c2.84,2.352,5.528,4.856,8.216,7.376l34.04-34.04
	C393.992,159.168,391.952,157.216,389.832,155.352z"/>
<rect x="242.567" y="110.358" transform="matrix(-0.7071 0.7071 -0.7071 -0.7071 659.3184 38.1284)" style="fill:#AFB8C9;" width="158.39" height="90.511"/>
<rect x="263.44" y="160.681" transform="matrix(-0.7071 0.7071 -0.7071 -0.7071 608.989 159.6225)" style="fill:#8C95A4;" width="15.992" height="90.511"/>
<polygon style="fill:#AFB8C9;" points="393.784,115.576 433.784,75.592 401.816,43.568 361.664,83.592 "/>
<polygon style="fill:#8C95A4;" points="373.056,72.24 361.664,83.592 393.784,115.576 405.088,104.272 "/>
<polygon style="fill:#798699;" points="417.696,11.36 393.784,35.624 441.784,83.592 465.68,59.48 "/>
<path style="fill:#ECECEC;" d="M385.68,395.36h-152l0,0c0-17.672,14.328-32,32-32h120V395.36z"/>
<path style="fill:#8C95A4;" d="M337.68,443.36v-32c0-26.512,21.488-48,48-48l0,0c26.512,0,48,21.488,48,48v32H337.68z"/>
<g>
	<circle style="fill:#798699;" cx="409.68" cy="307.36" r="24"/>
	<rect x="337.68" y="427.36" style="fill:#798699;" width="96" height="16"/>
</g>
<path d="M108.8,403.368c-2.52-2.384-5.064-4.784-7.608-7.208c37.896-37.176,76.488-82.848,76.488-144.8
	s-38.592-107.624-76.488-144.808c2.544-2.424,5.088-4.824,7.608-7.208c32.672-30.864,60.88-57.52,60.88-87.984v-8h-16v8
	c0,5.272-1.36,10.6-3.712,16H29.392c-2.352-5.4-3.712-10.728-3.712-16v-8h-16v8c0,30.464,28.208,57.12,60.88,87.992
	c2.52,2.384,5.064,4.784,7.608,7.208C40.272,143.736,1.68,189.408,1.68,251.36s38.592,107.624,76.488,144.808
	c-2.544,2.424-5.088,4.824-7.608,7.208C37.888,434.24,9.68,460.896,9.68,491.36v8h16v-8c0-5.272,1.36-10.6,3.712-16h120.584
	c2.344,5.4,3.704,10.728,3.704,16v8h16v-8C169.68,460.896,141.472,434.24,108.8,403.368z M49.68,340.256
	c-4.008-5.472-7.736-11.096-11.168-16.896h102.336c-3.424,5.8-7.16,11.424-11.168,16.896v-0.896h-80V340.256z M38.512,179.36
	c3.432-5.8,7.16-11.424,11.168-16.896v0.896h80v-0.896c4.008,5.464,7.736,11.096,11.168,16.896H121.68v16h27.608
	c2.344,5.176,4.32,10.536,6.056,16H24.024c1.736-5.464,3.704-10.824,6.056-16h75.6v-16H38.512z M159.472,227.36
	c0.96,5.184,1.512,10.544,1.848,16H18.048c0.328-5.456,0.88-10.816,1.848-16H159.472z M19.888,275.36
	c-0.96-5.184-1.512-10.544-1.848-16h143.272c-0.328,5.456-0.88,10.816-1.848,16H65.68v16h89.656c-1.736,5.464-3.704,10.824-6.056,16
	H30.072c-2.344-5.176-4.32-10.536-6.056-16H49.68v-16H19.888z M38.96,43.36H140.4c-3.904,5.224-8.536,10.552-13.664,16H52.624
	C47.496,53.912,42.856,48.584,38.96,43.36z M81.552,87.72c-4.448-4.208-8.792-8.312-12.992-12.36h42.232
	c-4.2,4.048-8.536,8.152-12.984,12.36c-2.672,2.528-5.392,5.096-8.128,7.696C86.936,92.816,84.224,90.248,81.552,87.72z
	 M89.68,117.656c9.68,9.472,19.248,19.304,28.088,29.704H61.592C70.432,136.96,80,127.128,89.68,117.656z M61.592,355.36h56.176
	c-8.84,10.4-18.408,20.232-28.088,29.704C80,375.592,70.432,365.76,61.592,355.36z M81.552,415c2.672-2.528,5.392-5.096,8.128-7.696
	c2.744,2.608,5.456,5.176,8.128,7.696c4.448,4.208,8.792,8.312,12.984,12.36H68.56C72.76,423.312,77.104,419.208,81.552,415z
	 M38.96,459.36c3.904-5.224,8.536-10.552,13.664-16h74.12c5.128,5.448,9.76,10.776,13.664,16H38.96z"/>
<path d="M457.68,435.36h-12.904c18.864-34.152,28.904-72.744,28.904-112c0-64.584-27.048-126.192-74.304-170.048l21.72-21.72
	l-16.008-16.008l28.696-28.68l8.032,8.024l35.152-35.464L417.664,0l-35.152,35.672l7.936,7.936l-28.72,28.624l-15.944-15.944
	l-112,112l-16-16L182.472,187.6l107.312,107.312l35.312-35.312l-16-16l44.88-44.88c23.08,20.84,40.088,47.824,48.816,77.44
	c-14.336,3.152-25.112,15.92-25.112,31.2c0,17.384,13.952,31.504,31.232,31.92c-0.632,6.688-1.688,13.328-3.112,19.88
	c-6.256-2.416-13.024-3.8-20.12-3.8h-120c-22.056,0-40,17.944-40,40v8h104.64c-0.376,2.624-0.64,5.28-0.64,8v24h-112
	c-22.056,0-40,17.944-40,40v24h320v-24C497.68,453.304,479.736,435.36,457.68,435.36z M417.728,22.72l36.664,36.776l-12.64,12.76
	l-36.696-36.672L417.728,22.72z M401.768,54.912l20.696,20.68l-28.688,28.672l-20.728-20.728L401.768,54.912z M289.784,272.28
	l-84.688-84.688l12.688-12.688l84.688,84.688L289.784,272.28z M245.096,179.592L345.784,78.904l52.688,52.688L297.784,232.28
	L245.096,179.592z M393.68,307.36c0-8.824,7.176-16,16-16s16,7.176,16,16s-7.176,16-16,16S393.68,316.184,393.68,307.36z
	 M425.248,335.144c9.752-5.488,16.432-15.816,16.432-27.784c0-14.144-9.28-26.032-22.024-30.248
	c-8.936-34.304-27.992-65.704-54.352-89.72l22.76-22.76c44.264,40.856,69.616,98.392,69.616,158.728
	c0,28.368-5.584,56.368-16.288,82.352c-1.56-15.504-9.496-29.128-21.104-38.288C422.888,356.864,424.552,346.04,425.248,335.144z
	 M243.048,387.36c3.304-9.312,12.2-16,22.632-16h80.88c-4.696,4.592-8.544,10.008-11.4,16H243.048z M481.68,483.36h-288v-8
	c0-13.232,10.768-24,24-24h144v-16h-16v-24c0-22.056,17.944-40,40-40s40,17.944,40,40v24h-48v16h80c13.232,0,24,10.768,24,24V483.36
	z"/>
<g>
</g>
<g>
</g>
<g>
</g>
<g>
</g>
<g>
</g>
<g>
</g>
<g>
</g>
<g>
</g>
<g>
</g>
<g>
</g>
<g>
</g>
<g>
</g>
<g>
</g>
<g>
</g>
<g>
</g>
</svg>
