<svg className="AuthHome-svg" width="2560" height="933" viewBox="0 0 2560 933" fill="none" xmlns="http://www.w3.org/2000/svg">
          <rect x="1513.5" y="7.5" width="360" height="368" stroke="#F6F6FA" stroke-width="15" />
          <rect x="-14" y="573" width="2587" height="360" fill="#F6F6FA" />
          <rect x="1359" y="288" width="1206" height="645" fill="#FFD053" />
          <rect x="1599" y="67" width="974" height="866" fill="#412BB5" />
          <rect x="1599" y="736" width="974" height="197" fill="#F67354" />
          <circle cx="2361.01" cy="237.99" r="7.0098" fill="#B4ABE3" />
          <circle cx="2361.01" cy="205.745" r="7.0098" fill="#B4ABE3" />
          <circle cx="2361.01" cy="173.5" r="7.0098" fill="#B4ABE3" />
          <circle cx="2361.01" cy="141.255" r="7.0098" fill="#B4ABE3" />
          <circle cx="2361.01" cy="109.01" r="7.0098" fill="#B4ABE3" />
          <circle cx="2397.46" cy="237.99" r="7.0098" fill="#B4ABE3" />
          <circle cx="2397.46" cy="205.745" r="7.0098" fill="#B4ABE3" />
          <circle cx="2397.46" cy="173.5" r="7.0098" fill="#B4ABE3" />
          <circle cx="2397.46" cy="141.255" r="7.0098" fill="#B4ABE3" />
          <circle cx="2397.46" cy="109.01" r="7.0098" fill="#B4ABE3" />
          <circle cx="2433.91" cy="237.99" r="7.0098" fill="#B4ABE3" />
          <circle cx="2433.91" cy="205.745" r="7.0098" fill="#B4ABE3" />
          <circle cx="2433.91" cy="173.5" r="7.0098" fill="#B4ABE3" />
          <circle cx="2433.91" cy="141.255" r="7.0098" fill="#B4ABE3" />
          <circle cx="2433.91" cy="109.01" r="7.0098" fill="#B4ABE3" />
          <circle cx="2470.36" cy="237.99" r="7.0098" fill="#B4ABE3" />
          <circle cx="2470.36" cy="205.745" r="7.0098" fill="#B4ABE3" />
          <circle cx="2470.36" cy="173.5" r="7.0098" fill="#B4ABE3" />
          <circle cx="2470.36" cy="141.255" r="7.0098" fill="#B4ABE3" />
          <circle cx="2470.36" cy="109.01" r="7.0098" fill="#B4ABE3" />
          <circle cx="2506.81" cy="237.99" r="7.0098" fill="#B4ABE3" />
          <circle cx="2506.81" cy="205.745" r="7.0098" fill="#B4ABE3" />
          <circle cx="2506.81" cy="173.5" r="7.0098" fill="#B4ABE3" />
          <circle cx="2506.81" cy="141.255" r="7.0098" fill="#B4ABE3" />
          <circle cx="2506.81" cy="109.01" r="7.0098" fill="#B4ABE3" />
        </svg>