<svg width="40" height="40" viewBox="0 0 40 40" fill="none" xmlns="http://www.w3.org/2000/svg">
<path d="M21.5667 20L30.7778 10.7889C30.9598 10.5763 31.0549 10.3029 31.0441 10.0233C31.0333 9.74363 30.9174 9.47836 30.7195 9.28048C30.5216 9.0826 30.2564 8.96667 29.9767 8.95587C29.6971 8.94507 29.4237 9.04019 29.2111 9.22222L20 18.4333L10.7889 9.21111C10.5797 9.00188 10.2959 8.88434 9.99999 8.88434C9.7041 8.88434 9.42033 9.00188 9.2111 9.21111C9.00188 9.42033 8.88434 9.70411 8.88434 10C8.88434 10.2959 9.00188 10.5797 9.2111 10.7889L18.4333 20L9.2111 29.2111C9.09479 29.3107 9.00032 29.4333 8.93363 29.5711C8.86694 29.709 8.82946 29.8591 8.82355 30.0122C8.81764 30.1652 8.84342 30.3178 8.89929 30.4604C8.95515 30.6029 9.03988 30.7324 9.14816 30.8407C9.25644 30.949 9.38594 31.0337 9.52852 31.0896C9.67111 31.1455 9.8237 31.1712 9.97672 31.1653C10.1297 31.1594 10.2799 31.1219 10.4177 31.0552C10.5556 30.9886 10.6782 30.8941 10.7778 30.7778L20 21.5667L29.2111 30.7778C29.4237 30.9598 29.6971 31.0549 29.9767 31.0441C30.2564 31.0333 30.5216 30.9174 30.7195 30.7195C30.9174 30.5216 31.0333 30.2564 31.0441 29.9767C31.0549 29.6971 30.9598 29.4237 30.7778 29.2111L21.5667 20Z" fill="black"/>
</svg>
