<svg width="2560" height="933" viewBox="0 0 2560 933" fill="none" xmlns="http://www.w3.org/2000/svg">
<path d="M1873.5 7.5H1513.5V375.5H1873.5V7.5Z" stroke="#F6F6FA" stroke-width="15"/>
<path d="M2573 327H-14V933H2573V327Z" fill="#F6F6FA"/>
<path d="M2565 288H1359V933H2565V288Z" fill="#FFD053"/>
<path d="M2573 67H1599V933H2573V67Z" fill="#412BB5"/>
<path d="M2573 736H1599V933H2573V736Z" fill="#F67354"/>
<path d="M2361.01 245C2364.88 245 2368.02 241.861 2368.02 237.99C2368.02 234.119 2364.88 230.98 2361.01 230.98C2357.14 230.98 2354 234.119 2354 237.99C2354 241.861 2357.14 245 2361.01 245Z" fill="#B4ABE3"/>
<path d="M2361.01 212.755C2364.88 212.755 2368.02 209.616 2368.02 205.745C2368.02 201.874 2364.88 198.735 2361.01 198.735C2357.14 198.735 2354 201.874 2354 205.745C2354 209.616 2357.14 212.755 2361.01 212.755Z" fill="#B4ABE3"/>
<path d="M2361.01 180.51C2364.88 180.51 2368.02 177.371 2368.02 173.5C2368.02 169.629 2364.88 166.49 2361.01 166.49C2357.14 166.49 2354 169.629 2354 173.5C2354 177.371 2357.14 180.51 2361.01 180.51Z" fill="#B4ABE3"/>
<path d="M2361.01 148.265C2364.88 148.265 2368.02 145.126 2368.02 141.255C2368.02 137.384 2364.88 134.245 2361.01 134.245C2357.14 134.245 2354 137.384 2354 141.255C2354 145.126 2357.14 148.265 2361.01 148.265Z" fill="#B4ABE3"/>
<path d="M2361.01 116.02C2364.88 116.02 2368.02 112.881 2368.02 109.01C2368.02 105.139 2364.88 102 2361.01 102C2357.14 102 2354 105.139 2354 109.01C2354 112.881 2357.14 116.02 2361.01 116.02Z" fill="#B4ABE3"/>
<path d="M2397.46 245C2401.33 245 2404.47 241.861 2404.47 237.99C2404.47 234.119 2401.33 230.98 2397.46 230.98C2393.59 230.98 2390.45 234.119 2390.45 237.99C2390.45 241.861 2393.59 245 2397.46 245Z" fill="#B4ABE3"/>
<path d="M2397.46 212.755C2401.33 212.755 2404.47 209.616 2404.47 205.745C2404.47 201.874 2401.33 198.735 2397.46 198.735C2393.59 198.735 2390.45 201.874 2390.45 205.745C2390.45 209.616 2393.59 212.755 2397.46 212.755Z" fill="#B4ABE3"/>
<path d="M2397.46 180.51C2401.33 180.51 2404.47 177.371 2404.47 173.5C2404.47 169.629 2401.33 166.49 2397.46 166.49C2393.59 166.49 2390.45 169.629 2390.45 173.5C2390.45 177.371 2393.59 180.51 2397.46 180.51Z" fill="#B4ABE3"/>
<path d="M2397.46 148.265C2401.33 148.265 2404.47 145.126 2404.47 141.255C2404.47 137.384 2401.33 134.245 2397.46 134.245C2393.59 134.245 2390.45 137.384 2390.45 141.255C2390.45 145.126 2393.59 148.265 2397.46 148.265Z" fill="#B4ABE3"/>
<path d="M2397.46 116.02C2401.33 116.02 2404.47 112.881 2404.47 109.01C2404.47 105.139 2401.33 102 2397.46 102C2393.59 102 2390.45 105.139 2390.45 109.01C2390.45 112.881 2393.59 116.02 2397.46 116.02Z" fill="#B4ABE3"/>
<path d="M2433.91 245C2437.78 245 2440.92 241.861 2440.92 237.99C2440.92 234.119 2437.78 230.98 2433.91 230.98C2430.04 230.98 2426.9 234.119 2426.9 237.99C2426.9 241.861 2430.04 245 2433.91 245Z" fill="#B4ABE3"/>
<path d="M2433.91 212.755C2437.78 212.755 2440.92 209.616 2440.92 205.745C2440.92 201.874 2437.78 198.735 2433.91 198.735C2430.04 198.735 2426.9 201.874 2426.9 205.745C2426.9 209.616 2430.04 212.755 2433.91 212.755Z" fill="#B4ABE3"/>
<path d="M2433.91 180.51C2437.78 180.51 2440.92 177.371 2440.92 173.5C2440.92 169.629 2437.78 166.49 2433.91 166.49C2430.04 166.49 2426.9 169.629 2426.9 173.5C2426.9 177.371 2430.04 180.51 2433.91 180.51Z" fill="#B4ABE3"/>
<path d="M2433.91 148.265C2437.78 148.265 2440.92 145.126 2440.92 141.255C2440.92 137.384 2437.78 134.245 2433.91 134.245C2430.04 134.245 2426.9 137.384 2426.9 141.255C2426.9 145.126 2430.04 148.265 2433.91 148.265Z" fill="#B4ABE3"/>
<path d="M2433.91 116.02C2437.78 116.02 2440.92 112.881 2440.92 109.01C2440.92 105.139 2437.78 102 2433.91 102C2430.04 102 2426.9 105.139 2426.9 109.01C2426.9 112.881 2430.04 116.02 2433.91 116.02Z" fill="#B4ABE3"/>
<path d="M2470.36 245C2474.23 245 2477.37 241.861 2477.37 237.99C2477.37 234.119 2474.23 230.98 2470.36 230.98C2466.49 230.98 2463.35 234.119 2463.35 237.99C2463.35 241.861 2466.49 245 2470.36 245Z" fill="#B4ABE3"/>
<path d="M2470.36 212.755C2474.23 212.755 2477.37 209.616 2477.37 205.745C2477.37 201.874 2474.23 198.735 2470.36 198.735C2466.49 198.735 2463.35 201.874 2463.35 205.745C2463.35 209.616 2466.49 212.755 2470.36 212.755Z" fill="#B4ABE3"/>
<path d="M2470.36 180.51C2474.23 180.51 2477.37 177.371 2477.37 173.5C2477.37 169.629 2474.23 166.49 2470.36 166.49C2466.49 166.49 2463.35 169.629 2463.35 173.5C2463.35 177.371 2466.49 180.51 2470.36 180.51Z" fill="#B4ABE3"/>
<path d="M2470.36 148.265C2474.23 148.265 2477.37 145.126 2477.37 141.255C2477.37 137.384 2474.23 134.245 2470.36 134.245C2466.49 134.245 2463.35 137.384 2463.35 141.255C2463.35 145.126 2466.49 148.265 2470.36 148.265Z" fill="#B4ABE3"/>
<path d="M2470.36 116.02C2474.23 116.02 2477.37 112.881 2477.37 109.01C2477.37 105.139 2474.23 102 2470.36 102C2466.49 102 2463.35 105.139 2463.35 109.01C2463.35 112.881 2466.49 116.02 2470.36 116.02Z" fill="#B4ABE3"/>
<path d="M2506.81 245C2510.68 245 2513.82 241.861 2513.82 237.99C2513.82 234.119 2510.68 230.98 2506.81 230.98C2502.94 230.98 2499.8 234.119 2499.8 237.99C2499.8 241.861 2502.94 245 2506.81 245Z" fill="#B4ABE3"/>
<path d="M2506.81 212.755C2510.68 212.755 2513.82 209.616 2513.82 205.745C2513.82 201.874 2510.68 198.735 2506.81 198.735C2502.94 198.735 2499.8 201.874 2499.8 205.745C2499.8 209.616 2502.94 212.755 2506.81 212.755Z" fill="#B4ABE3"/>
<path d="M2506.81 180.51C2510.68 180.51 2513.82 177.371 2513.82 173.5C2513.82 169.629 2510.68 166.49 2506.81 166.49C2502.94 166.49 2499.8 169.629 2499.8 173.5C2499.8 177.371 2502.94 180.51 2506.81 180.51Z" fill="#B4ABE3"/>
<path d="M2506.81 148.265C2510.68 148.265 2513.82 145.126 2513.82 141.255C2513.82 137.384 2510.68 134.245 2506.81 134.245C2502.94 134.245 2499.8 137.384 2499.8 141.255C2499.8 145.126 2502.94 148.265 2506.81 148.265Z" fill="#B4ABE3"/>
<path d="M2506.81 116.02C2510.68 116.02 2513.82 112.881 2513.82 109.01C2513.82 105.139 2510.68 102 2506.81 102C2502.94 102 2499.8 105.139 2499.8 109.01C2499.8 112.881 2502.94 116.02 2506.81 116.02Z" fill="#B4ABE3"/>
<path d="M1805 835L1850.75 794.333L1850.75 824.833L1927 824.833L1927 845.167L1850.75 845.167L1850.75 875.667L1805 835Z" fill="white"/>
<path d="M2377 835L2331.25 875.667L2331.25 845.167L2255 845.167L2255 824.833L2331.25 824.833L2331.25 794.333L2377 835Z" fill="white"/>
</svg>
