<svg width="659" height="396" viewBox="0 0 659 396" fill="none" xmlns="http://www.w3.org/2000/svg">
<path d="M45.5569 371.58L84.4231 315.789L45.5372 377.648L45.5145 383.996C42.7428 383.973 39.9992 383.883 37.2836 383.726C37.2712 382.284 40.5746 302.984 40.4342 301.549C40.6259 301.495 40.7335 294.049 40.8096 293.723L0.205719 232.756L40.8532 287.953L40.9744 289.584L43.3858 227.973L8.48241 164.88L43.6618 217.147C43.6749 216.308 45.3269 89.8055 45.3432 89.0249C45.3531 89.4395 46.1113 189.696 46.1169 190.119L79.4978 149.764L46.0849 198.79L45.9142 253.932L76.8914 200.609C38.2322 278.373 46.7877 251.16 45.8003 292.701L90.7965 218.452L45.7618 303.398L45.5569 371.58Z" fill="#D0CDE1"/>
<path d="M640.147 379.154L656.344 355.905L640.139 381.683L640.13 384.328C638.975 384.318 637.831 384.281 636.7 384.216C636.695 383.615 638.071 350.568 638.013 349.97C638.093 349.948 638.138 346.845 638.169 346.709L621.249 321.303L638.187 344.305L638.238 344.984L639.243 319.309L624.698 293.017L639.358 314.798C639.363 314.449 640.052 261.732 640.058 261.406C640.063 261.579 640.379 303.359 640.381 303.535L654.292 286.718L640.368 307.148L640.296 330.127L653.205 307.906C637.095 340.312 640.66 328.972 640.249 346.283L659 315.342L640.233 350.741L640.147 379.154Z" fill="#D0CDE1"/>
<path d="M328.423 396C509.806 396 656.846 390.245 656.846 383.145C656.846 376.045 509.806 370.29 328.423 370.29C147.04 370.29 0 376.045 0 383.145C0 390.245 147.04 396 328.423 396Z" fill="#D0CDE1"/>
<path d="M487.732 151.832H112.742V375.188H487.732V151.832Z" fill="#3F3D56"/>
<path d="M205.546 151.832C205.163 175.336 195.549 197.747 178.777 214.234C162.006 230.72 139.42 239.961 115.892 239.964C114.838 239.964 113.79 239.945 112.742 239.908V151.832H205.546Z" fill="#1063B0"/>
<path d="M318.581 375.188H282.916C284.258 371.541 286.687 368.394 289.876 366.171C293.065 363.948 296.86 362.757 300.748 362.757C304.637 362.757 308.431 363.948 311.62 366.171C314.809 368.394 317.239 371.541 318.581 375.188V375.188Z" fill="#1063B0"/>
<path d="M487.732 259.656V334.89C478.065 334.418 468.949 330.248 462.274 323.246C455.599 316.243 451.876 306.943 451.876 297.273C451.876 287.603 455.599 278.303 462.274 271.301C468.949 264.298 478.065 260.129 487.732 259.656V259.656Z" fill="#1063B0"/>
<path d="M418.843 232.994H182.281C176.179 232.994 171.233 237.936 171.233 244.032V244.032C171.233 250.128 176.179 255.069 182.281 255.069H418.843C424.945 255.069 429.892 250.128 429.892 244.032C429.892 237.936 424.945 232.994 418.843 232.994Z" fill="white"/>
<path d="M418.843 276.496H182.281C176.179 276.496 171.233 281.438 171.233 287.534V287.534C171.233 293.63 176.179 298.571 182.281 298.571H418.843C424.945 298.571 429.892 293.63 429.892 287.534C429.892 281.438 424.945 276.496 418.843 276.496Z" fill="white"/>
<path d="M418.843 319.998H350.253C344.152 319.998 339.205 324.94 339.205 331.036C339.205 337.132 344.152 342.073 350.253 342.073H418.843C424.945 342.073 429.892 337.132 429.892 331.036C429.892 324.94 424.945 319.998 418.843 319.998Z" fill="white"/>
<path d="M547.199 68.6342C547.199 68.6342 557.51 72.6404 558.083 85.8037C558.656 98.9671 555.219 135.595 555.219 135.595C555.219 135.595 567.822 153.91 558.083 159.06C548.345 164.211 547.199 138.457 547.199 138.457L535.742 84.0868C535.742 84.0868 542.616 68.0618 547.199 68.6342Z" fill="#A0616A"/>
<path d="M441.793 110.986C441.793 110.986 417.16 127.011 416.014 114.42C414.868 101.829 423.461 52.6092 423.461 52.6092C423.461 52.6092 424.607 31.4334 436.637 36.5843C448.667 41.7352 433.2 59.4771 433.2 59.4771L434.919 99.5394L446.376 98.9671L441.793 110.986Z" fill="#A0616A"/>
<path d="M481.32 125.866C481.32 125.866 405.703 97.8224 409.713 130.445C413.723 163.067 433.2 204.274 433.2 204.274L440.074 215.148H454.396L445.23 156.199C445.23 156.199 477.883 174.513 487.622 171.651C487.622 171.651 500.224 255.782 504.807 262.078C509.39 268.373 517.41 344.492 517.41 344.492L524.857 353.649H539.179V224.877C539.179 224.877 563.812 144.753 544.907 140.746C526.003 136.74 481.32 125.866 481.32 125.866Z" fill="#2F2E41"/>
<path d="M438.356 207.708C438.356 207.708 434.919 201.412 429.19 207.708C423.461 214.003 409.713 221.443 409.713 221.443C409.713 221.443 379.924 228.311 403.984 234.034C428.044 239.757 430.909 234.034 430.909 234.034C430.909 234.034 434.919 235.179 438.356 236.323C441.793 237.468 464.134 233.462 464.134 230.028C464.134 226.594 456.55 206.072 453.468 209.179C450.386 212.286 438.356 207.708 438.356 207.708Z" fill="#2F2E41"/>
<path d="M525.955 347.984C525.955 347.984 517.509 341.034 515.521 343.02C513.534 345.006 503.1 358.408 503.1 358.408C503.1 358.408 475.276 379.753 500.616 383.227C525.955 386.702 524.465 377.271 524.465 377.271H532.414C533.408 377.271 546.823 371.314 546.326 368.832C545.829 366.35 539.867 346.112 537.88 347.544C535.892 348.977 525.955 347.984 525.955 347.984Z" fill="#2F2E41"/>
<path d="M449.24 46.886C459.997 46.886 468.717 38.174 468.717 27.4272C468.717 16.6804 459.997 7.96838 449.24 7.96838C438.483 7.96838 429.763 16.6804 429.763 27.4272C429.763 38.174 438.483 46.886 449.24 46.886Z" fill="#A0616A"/>
<path d="M462.989 25.1379C462.989 25.1379 477.883 37.7289 488.194 37.7289C498.506 37.7289 473.3 61.194 473.3 61.194L450.959 41.1629L462.989 25.1379Z" fill="#A0616A"/>
<path d="M468.717 61.194L468.271 56.6851C468.271 56.6851 479.602 36.5843 483.039 34.8674C486.476 33.1504 488.767 33.1504 488.767 33.1504C488.767 33.1504 500.225 21.1317 512.827 27.4272C525.43 33.7227 555.219 73.785 555.219 73.785C555.219 73.785 534.023 75.502 536.887 92.0992C536.887 92.0992 558.083 146.47 552.355 147.042C546.626 147.614 529.44 143.608 511.682 151.62C493.923 159.633 485.903 154.482 485.903 154.482L476.737 124.721C476.737 124.721 459.552 114.992 460.124 106.407L435.205 117.567L437.496 96.3916L452.677 78.9359C452.677 78.9359 449.813 76.6466 468.717 61.194Z" fill="#575A89"/>
<path d="M431.324 29.531C430.549 30.3904 429.579 31.0506 428.495 31.4554C427.386 31.7679 425.988 31.3846 425.546 30.3212L426.37 29.2503L423.901 27.7175L424.977 26.4564L422.988 24.299L424.557 23.0549L421.569 20.9197C425.442 14.6055 429.631 8.21235 435.746 4.02669C441.861 -0.158963 450.405 -1.64627 456.669 2.31279C459.922 4.36828 462.222 7.63069 464.064 11.0064C467.769 17.7953 471.034 24.4129 471.517 32.1303C469.189 29.8661 465.792 28.5902 463.464 26.326C462.434 25.2336 461.266 24.2787 459.991 23.4852C457.557 22.1139 454.644 21.9926 451.919 21.3739C449.628 20.8538 448.141 19.8219 446.407 18.3468C444.345 16.592 444.261 17.2705 442.179 19.2462C438.563 22.6769 434.944 26.1051 431.324 29.531Z" fill="#2F2E41"/>
</svg>
