<svg width="388" height="389" viewBox="0 0 388 389" fill="none" xmlns="http://www.w3.org/2000/svg">
<g clip-path="url(#clip0)">
<path d="M37.3124 327.698L33.8952 314.227C27.8364 311.66 21.6376 309.437 15.3284 307.568L14.897 313.829L13.1478 306.931C5.32319 304.696 0 303.712 0 303.712C0 303.712 7.18857 331.043 22.271 351.937L39.8435 355.023L26.192 356.991C28.0892 359.272 30.128 361.433 32.2965 363.459C54.2347 383.814 78.6702 393.153 86.874 384.318C95.0778 375.483 83.9439 351.82 62.0057 331.467C55.2047 325.157 46.6612 320.093 38.1089 316.107L37.3124 327.698Z" fill="#F2F2F2"/>
<path d="M69.8099 313.066L73.8511 299.768C69.9922 294.441 65.8356 289.335 61.4014 284.475L57.7946 289.612L59.8636 282.803C54.3206 276.848 50.2726 273.256 50.2726 273.256C50.2726 273.256 42.2949 300.367 44.3993 326.046L57.8467 337.767L45.1406 332.398C45.5852 335.332 46.2139 338.235 47.0232 341.09C55.2775 369.85 71.3659 390.47 82.9572 387.146C94.5485 383.822 97.2541 357.813 88.9998 329.053C86.4411 320.137 81.7456 311.388 76.4859 303.557L69.8099 313.066Z" fill="#F2F2F2"/>
<path d="M270.744 92.1543H268.613V33.7843C268.613 29.3477 267.739 24.9545 266.04 20.8556C264.342 16.7567 261.852 13.0324 258.714 9.8952C255.575 6.75803 251.849 4.2695 247.749 2.57168C243.648 0.873854 239.253 0 234.815 0H111.094C102.13 0 93.5337 3.55941 87.1953 9.8952C80.8569 16.231 77.296 24.8242 77.296 33.7843V354.012C77.296 358.449 78.1702 362.842 79.8688 366.941C81.5673 371.04 84.0569 374.764 87.1953 377.901C90.3338 381.039 94.0597 383.527 98.1603 385.225C102.261 386.923 106.656 387.797 111.094 387.797H234.815C243.778 387.796 252.375 384.237 258.713 377.901C265.052 371.565 268.612 362.972 268.612 354.012V133.703H270.744L270.744 92.1543Z" fill="#E6E6E6"/>
<path d="M236.178 8.78624H220.03C220.773 10.6064 221.056 12.5812 220.855 14.5366C220.655 16.4921 219.976 18.3682 218.879 19.9996C217.782 21.6311 216.3 22.9678 214.565 23.892C212.829 24.8163 210.893 25.2997 208.926 25.2996H138.048C136.082 25.2995 134.146 24.816 132.41 23.8917C130.675 22.9674 129.193 21.6306 128.096 19.9992C126.999 18.3678 126.321 16.4917 126.12 14.5364C125.919 12.581 126.203 10.6063 126.946 8.78624H111.862C105.168 8.78624 98.748 11.4444 94.0145 16.1759C89.2811 20.9074 86.6218 27.3247 86.6218 34.016V353.779C86.6218 360.47 89.2811 366.888 94.0145 371.619C98.748 376.351 105.168 379.009 111.862 379.009H236.178C242.872 379.009 249.292 376.351 254.026 371.619C258.759 366.888 261.418 360.47 261.418 353.779V353.779V34.0155C261.418 27.3242 258.759 20.9071 254.026 16.1757C249.292 11.4443 242.872 8.78624 236.178 8.78624V8.78624Z" fill="white"/>
<path d="M158.179 136.164C158.179 133.928 158.767 131.733 159.886 129.797C161.004 127.862 162.613 126.255 164.55 125.138C162.614 124.021 160.417 123.432 158.181 123.432C155.946 123.432 153.749 124.02 151.813 125.137C149.876 126.254 148.268 127.861 147.15 129.797C146.032 131.732 145.444 133.928 145.444 136.163C145.444 138.398 146.032 140.593 147.15 142.529C148.268 144.464 149.876 146.071 151.813 147.189C153.749 148.306 155.946 148.894 158.181 148.894C160.417 148.894 162.614 148.305 164.55 147.187C162.613 146.071 161.004 144.464 159.886 142.529C158.767 140.594 158.179 138.398 158.179 136.164V136.164Z" fill="#CCCCCC"/>
<path d="M174.19 136.164C174.19 133.928 174.778 131.733 175.897 129.797C177.015 127.862 178.624 126.255 180.561 125.138C178.625 124.021 176.429 123.432 174.193 123.432C171.957 123.432 169.76 124.02 167.824 125.137C165.888 126.254 164.28 127.861 163.162 129.797C162.044 131.732 161.455 133.928 161.455 136.163C161.455 138.398 162.044 140.593 163.162 142.529C164.28 144.464 165.888 146.071 167.824 147.189C169.76 148.306 171.957 148.894 174.193 148.894C176.429 148.894 178.625 148.305 180.561 147.187C178.624 146.071 177.015 144.464 175.897 142.529C174.779 140.594 174.19 138.398 174.19 136.164V136.164Z" fill="#CCCCCC"/>
<path d="M189.838 148.894C196.872 148.894 202.574 143.194 202.574 136.163C202.574 129.132 196.872 123.432 189.838 123.432C182.804 123.432 177.102 129.132 177.102 136.163C177.102 143.194 182.804 148.894 189.838 148.894Z" fill="#09B5D7"/>
<path d="M211.123 175.927H136.894C136.187 175.926 135.509 175.645 135.01 175.146C134.51 174.646 134.229 173.969 134.228 173.263V99.0635C134.229 98.3571 134.51 97.6798 135.01 97.1803C135.509 96.6809 136.187 96.3999 136.894 96.399H211.123C211.83 96.3999 212.508 96.6809 213.007 97.1803C213.507 97.6798 213.788 98.3571 213.789 99.0635V173.263C213.788 173.969 213.507 174.646 213.007 175.146C212.508 175.645 211.83 175.926 211.123 175.927V175.927ZM136.894 97.4654C136.47 97.4658 136.063 97.6344 135.763 97.9341C135.463 98.2338 135.295 98.6401 135.294 99.064V173.263C135.295 173.687 135.463 174.093 135.763 174.393C136.063 174.693 136.47 174.861 136.894 174.862H211.123C211.547 174.861 211.954 174.693 212.254 174.393C212.554 174.093 212.722 173.687 212.723 173.263V99.064C212.722 98.6401 212.554 98.2338 212.254 97.9341C211.954 97.6344 211.547 97.4658 211.123 97.4654H136.894Z" fill="#CCCCCC"/>
<path d="M227.698 232.804H113.852V233.87H227.698V232.804Z" fill="#CCCCCC"/>
<path d="M117.447 226.15C119.433 226.15 121.042 224.541 121.042 222.556C121.042 220.571 119.433 218.962 117.447 218.962C115.461 218.962 113.852 220.571 113.852 222.556C113.852 224.541 115.461 226.15 117.447 226.15Z" fill="#09B5D7"/>
<path d="M227.698 268.741H113.852V269.806H227.698V268.741Z" fill="#CCCCCC"/>
<path d="M117.447 262.087C119.433 262.087 121.042 260.478 121.042 258.493C121.042 256.508 119.433 254.899 117.447 254.899C115.461 254.899 113.852 256.508 113.852 258.493C113.852 260.478 115.461 262.087 117.447 262.087Z" fill="#09B5D7"/>
<path d="M225.614 309.663H189.636C189.014 309.663 188.419 309.416 187.979 308.976C187.54 308.537 187.292 307.941 187.292 307.32V294.715C187.292 294.094 187.54 293.498 187.979 293.059C188.419 292.62 189.014 292.373 189.636 292.372H225.614C226.236 292.373 226.832 292.62 227.271 293.059C227.711 293.498 227.958 294.094 227.958 294.715V307.32C227.958 307.941 227.711 308.537 227.271 308.976C226.832 309.416 226.236 309.663 225.614 309.663V309.663Z" fill="#09B5D7"/>
<path d="M129.175 226.15C131.16 226.15 132.77 224.541 132.77 222.556C132.77 220.571 131.16 218.962 129.175 218.962C127.189 218.962 125.579 220.571 125.579 222.556C125.579 224.541 127.189 226.15 129.175 226.15Z" fill="#09B5D7"/>
<path d="M140.902 226.15C142.888 226.15 144.498 224.541 144.498 222.556C144.498 220.571 142.888 218.962 140.902 218.962C138.917 218.962 137.307 220.571 137.307 222.556C137.307 224.541 138.917 226.15 140.902 226.15Z" fill="#09B5D7"/>
<path d="M129.175 262.087C131.16 262.087 132.77 260.478 132.77 258.493C132.77 256.508 131.16 254.899 129.175 254.899C127.189 254.899 125.579 256.508 125.579 258.493C125.579 260.478 127.189 262.087 129.175 262.087Z" fill="#09B5D7"/>
<path d="M140.902 262.087C142.888 262.087 144.498 260.478 144.498 258.493C144.498 256.508 142.888 254.899 140.902 254.899C138.917 254.899 137.307 256.508 137.307 258.493C137.307 260.478 138.917 262.087 140.902 262.087Z" fill="#09B5D7"/>
<path d="M386.551 389H12.5435C11.7429 389 11.0944 388.716 11.0944 388.366C11.0944 388.016 11.7429 387.731 12.5435 387.731H386.551C387.351 387.731 388 388.015 388 388.366C388 388.716 387.351 389 386.551 389Z" fill="#3F3D56"/>
<path d="M294.147 254.861C294.402 254.977 294.648 255.114 294.882 255.271L318.246 245.303L319.08 239.151L328.415 239.094L327.864 253.203L297.026 261.355C296.961 261.57 296.883 261.78 296.793 261.985C296.347 262.936 295.63 263.734 294.732 264.279C293.833 264.824 292.794 265.091 291.745 265.048C290.695 265.004 289.681 264.652 288.831 264.034C287.981 263.417 287.333 262.563 286.967 261.578C286.601 260.593 286.535 259.523 286.776 258.501C287.017 257.478 287.555 256.55 288.322 255.832C289.089 255.115 290.051 254.64 291.087 254.467C292.124 254.294 293.188 254.431 294.147 254.861V254.861Z" fill="#FFB8B8"/>
<path d="M331.81 382.723H325.424L322.386 358.1L331.811 358.1L331.81 382.723Z" fill="#FFB8B8"/>
<path d="M320.862 380.898H333.179V388.65H313.108C313.108 386.594 313.925 384.622 315.379 383.169C316.833 381.715 318.806 380.898 320.862 380.898Z" fill="#2F2E41"/>
<path d="M356.647 380.919L350.292 381.545L344.853 357.339L354.233 356.415L356.647 380.919Z" fill="#FFB8B8"/>
<path d="M345.573 380.176L357.83 378.97L358.591 386.684L338.616 388.65C338.516 387.637 338.617 386.615 338.913 385.641C339.208 384.666 339.693 383.76 340.339 382.973C340.985 382.186 341.78 381.534 342.678 381.054C343.576 380.575 344.56 380.276 345.573 380.176Z" fill="#2F2E41"/>
<path d="M333.588 213.035C340.654 213.035 346.382 207.309 346.382 200.246C346.382 193.183 340.654 187.457 333.588 187.457C326.522 187.457 320.794 193.183 320.794 200.246C320.794 207.309 326.522 213.035 333.588 213.035Z" fill="#FFB8B8"/>
<path d="M323.997 377.743C323.448 377.744 322.916 377.552 322.496 377.2C322.075 376.848 321.792 376.358 321.697 375.818C318.391 357.476 307.587 297.502 307.328 295.841C307.323 295.803 307.32 295.764 307.32 295.726V291.254C307.32 291.091 307.371 290.932 307.466 290.8L308.893 288.802C308.961 288.706 309.05 288.626 309.153 288.57C309.256 288.513 309.371 288.481 309.489 288.476C317.626 288.095 344.277 286.977 345.565 288.585C346.858 290.201 346.401 295.097 346.296 296.062L346.301 296.163L358.275 372.703C358.369 373.313 358.218 373.936 357.856 374.436C357.494 374.937 356.949 375.275 356.34 375.377L348.861 376.608C348.304 376.698 347.734 376.584 347.253 376.289C346.773 375.993 346.415 375.535 346.243 374.998C343.93 367.61 336.175 342.757 333.487 333.141C333.47 333.08 333.432 333.027 333.379 332.992C333.326 332.958 333.262 332.943 333.2 332.952C333.137 332.961 333.08 332.993 333.039 333.04C332.998 333.088 332.975 333.15 332.976 333.213C333.11 342.38 333.435 365.769 333.547 373.846L333.559 374.717C333.564 375.306 333.348 375.875 332.953 376.312C332.558 376.75 332.014 377.023 331.427 377.078L324.216 377.733C324.142 377.74 324.069 377.743 323.997 377.743Z" fill="#2F2E41"/>
<path d="M325.468 218.063C323.235 219.39 321.899 221.828 321.133 224.309C319.713 228.902 318.859 233.651 318.588 238.451L317.778 252.822L307.748 290.922C316.441 298.274 321.456 296.603 333.158 290.589C344.86 284.575 346.198 292.594 346.198 292.594L348.538 260.177L351.881 224.752C351.131 223.849 350.281 223.033 349.349 222.319C346.259 219.917 342.663 218.247 338.833 217.436C335.004 216.624 331.04 216.692 327.24 217.635L325.468 218.063Z" fill="#09B5D7"/>
<path d="M322.21 262.555C322.48 262.657 322.741 262.779 322.992 262.922L346.093 251.364L346.477 245.102L356.006 244.445L356.517 258.719L325.645 268.924C325.393 270.005 324.817 270.984 323.995 271.73C323.173 272.476 322.144 272.954 321.043 273.101C319.943 273.247 318.824 273.056 317.835 272.551C316.846 272.047 316.034 271.253 315.507 270.276C314.981 269.3 314.764 268.186 314.886 267.083C315.008 265.98 315.463 264.94 316.191 264.102C316.918 263.263 317.884 262.667 318.959 262.39C320.035 262.114 321.168 262.172 322.21 262.555Z" fill="#FFB8B8"/>
<path d="M351.714 224.915C357.398 226.92 358.399 248.645 358.399 248.645C351.712 244.968 343.688 250.984 343.688 250.984C343.688 250.984 342.016 245.303 340.01 237.95C339.404 235.882 339.332 233.694 339.8 231.591C340.267 229.487 341.26 227.536 342.685 225.919C342.685 225.919 346.03 222.908 351.714 224.915Z" fill="#09B5D7"/>
<path d="M345.06 203.628C343.466 202.353 341.291 204.67 341.291 204.67L340.016 193.198C340.016 193.198 332.045 194.152 326.944 192.879C321.843 191.606 321.046 197.5 321.046 197.5C320.783 195.12 320.73 192.72 320.887 190.33C321.205 187.462 325.35 184.594 332.683 182.681C340.016 180.769 343.841 189.055 343.841 189.055C348.943 191.604 346.654 204.903 345.06 203.628Z" fill="#2F2E41"/>
</g>
<defs>
<clipPath id="clip0">
<rect width="388" height="389" fill="white"/>
</clipPath>
</defs>
</svg>
