<svg width="421" height="348" viewBox="0 0 421 348" fill="none" xmlns="http://www.w3.org/2000/svg">
<g clip-path="url(#clip0)">
<path d="M197.419 337.411C197.419 342.73 153.17 343.296 98.7097 347.041C44.3 350.783 0 342.73 0 337.411C0 332.093 44.5041 321.391 98.7097 327.781C153.17 334.201 197.419 332.093 197.419 337.411Z" fill="#E6E6E6"/>
<path d="M405.557 0.000572545H288.557C282.911 0.000565794 277.433 2.11402 273.023 5.99353C268.614 9.87304 265.535 15.2877 264.294 21.3475L205.176 309.857C204.531 313.004 204.52 316.268 205.142 319.421C205.765 322.573 207.007 325.537 208.782 328.105C210.556 330.673 212.819 332.784 215.413 334.288C218.007 335.792 220.868 336.653 223.796 336.812L344.073 343.332C350.514 343.681 356.85 341.44 361.899 337.027C366.948 332.614 370.365 326.331 371.513 319.35L405.048 115.37L407.543 116.154L413.96 77.4923L411.392 76.7859L420.753 19.8478C421.154 17.409 421.061 14.903 420.48 12.5083C419.9 10.1136 418.847 7.8892 417.396 5.99375C415.944 4.0983 414.131 2.57843 412.085 1.5425C410.038 0.506562 407.81 -0.0199247 405.557 0.000568464L405.557 0.000572545Z" fill="#3F3D56"/>
<path d="M303.96 6.22009H290.302C286.38 6.22009 282.576 7.69596 279.521 10.4027C276.466 13.1094 274.345 16.8842 273.509 21.1004L216.764 307.256C216.437 308.904 216.437 310.61 216.765 312.257C217.092 313.904 217.739 315.455 218.66 316.802C219.582 318.149 220.757 319.262 222.106 320.063C223.454 320.865 224.944 321.337 226.473 321.448L346.361 330.093C349.743 330.337 353.089 329.202 355.759 326.905C358.429 324.608 360.237 321.309 360.838 317.639L409.259 21.869C409.573 19.9547 409.5 17.988 409.047 16.1077C408.595 14.2275 407.772 12.4795 406.638 10.9871C405.504 9.49474 404.087 8.29436 402.485 7.47068C400.883 6.647 399.137 6.22009 397.369 6.22009H384.413C383.159 6.22009 381.94 6.67493 380.945 7.51418C379.949 8.35343 379.233 9.53029 378.907 10.8625V10.8625C378.619 12.0387 377.987 13.0777 377.109 13.8186C376.23 14.5595 375.154 14.961 374.047 14.961H312.539C310.371 14.961 308.283 14.0607 306.693 12.4402C305.102 10.8196 304.126 8.59818 303.96 6.22009V6.22009Z" fill="white"/>
<path d="M175.63 153.41L186.2 176.435L217.807 192.244C221.183 198.52 231.908 199.001 232.688 194.942C233.564 190.389 219.664 183.06 219.664 183.06L193.227 163.386L190.914 146.45L175.63 153.41Z" fill="#A0616A"/>
<path d="M176.877 307.926L174.927 325.085L186.234 325.943L187.404 307.926H176.877Z" fill="#A0616A"/>
<path d="M178.436 322.511C177.425 321.335 176.493 320.081 175.646 318.757C174.026 316.29 172.588 328.946 172.588 328.946C172.588 328.946 171.028 334.094 171.418 336.668C171.808 339.242 180.776 339.242 182.335 338.813C183.895 338.384 191.693 338.813 191.693 338.813H203.389C213.526 333.665 203.389 330.233 203.389 330.233C200.27 329.804 189.743 319.08 189.743 319.08L187.404 314.361C185.844 313.932 184.285 320.367 184.285 320.367L178.436 322.511Z" fill="#2F2E41"/>
<path d="M147.635 308.141L145.685 325.3L156.992 326.158L158.162 308.141H147.635Z" fill="#A0616A"/>
<path d="M149.195 322.726C148.184 321.55 147.251 320.295 146.405 318.972C144.784 316.505 143.346 329.161 143.346 329.161C143.346 329.161 141.787 333.879 142.177 336.453C142.566 339.027 151.534 339.027 153.094 338.598C154.653 338.169 162.451 339.027 162.451 339.027H174.148C184.285 333.879 174.148 330.448 174.148 330.448C171.028 330.019 160.501 319.294 160.501 319.294L158.162 314.575C156.602 314.146 155.043 320.581 155.043 320.581L149.195 322.726Z" fill="#2F2E41"/>
<path d="M160.501 197.465C158.942 199.609 159.722 206.902 159.722 206.902C159.722 206.902 156.992 230.496 158.162 232.641C159.332 234.786 157.382 236.502 156.213 239.505C155.043 242.507 153.873 249.8 153.873 249.8C147.245 255.806 147.635 283.26 147.635 283.26L145.296 307.712C146.075 310.286 156.992 310.715 158.552 310.286C160.111 309.857 164.79 271.249 164.79 271.249L175.317 249.371C175.317 249.371 174.537 307.712 174.537 310.286C174.537 312.86 185.064 311.573 187.404 311.573C189.743 311.573 189.743 268.675 189.743 268.675L192.082 257.522L204.559 206.473V200.467L202.609 197.465C202.609 197.465 162.061 195.32 160.501 197.465Z" fill="#2F2E41"/>
<path d="M177.656 100.087C184.332 100.087 189.743 94.1329 189.743 86.7884C189.743 79.444 184.332 73.4901 177.656 73.4901C170.981 73.4901 165.57 79.444 165.57 86.7884C165.57 94.1329 170.981 100.087 177.656 100.087Z" fill="#A0616A"/>
<path d="M183.7 93.0086C181.25 99.0111 182.701 107.395 187.599 116.602L167.714 106.307L170.833 103.304L170.054 94.7245L183.7 93.0086Z" fill="#A0616A"/>
<path d="M183.7 106.736C186.304 108.439 187.861 111.569 188.756 114.753C190.411 120.649 191.407 126.744 191.723 132.905L192.667 151.35L204.364 200.253C194.227 209.69 188.379 207.546 174.732 199.824C161.086 192.102 159.527 202.398 159.527 202.398C159.527 202.398 158.357 201.969 159.527 200.682C160.696 199.395 159.527 200.682 158.357 199.395C157.187 198.108 158.357 199.395 158.747 198.108C159.137 196.821 158.747 197.679 158.357 197.25C157.967 196.821 159.917 192.96 159.917 192.96L156.798 160.787L152.899 115.315C157.577 108.881 170.834 103.304 170.834 103.304L182.92 112.742C186.819 114.457 183.7 107.594 183.7 107.594L183.7 106.736Z" fill="#6C63FF"/>
<path d="M146.465 142.555L144.906 168.294L164.79 199.609C164.79 206.902 168.299 208.618 168.299 208.618C169.628 206.284 170.801 203.847 171.808 201.325C173.758 196.607 170.638 192.746 170.638 192.746L156.992 161.002L162.841 145.129L146.465 142.555Z" fill="#A0616A"/>
<path d="M153.094 115.53C146.466 118.104 145.296 145.987 145.296 145.987C153.094 141.269 162.451 148.99 162.451 148.99C162.451 148.99 164.4 141.698 166.74 132.26C167.446 129.605 167.531 126.797 166.985 124.097C166.44 121.397 165.282 118.892 163.621 116.817C163.621 116.817 159.722 112.956 153.094 115.53Z" fill="#6C63FF"/>
<path d="M166.545 90.8637C168.083 89.5094 170.182 91.9712 170.182 91.9712L171.413 79.782C171.413 79.782 179.107 80.7978 184.03 79.4435C188.954 78.0891 189.724 84.353 189.724 84.353C189.977 81.8234 190.029 79.2742 189.877 76.7348C189.57 73.6875 185.569 70.6402 178.491 68.6087C171.413 66.5772 167.72 75.3804 167.72 75.3804C162.797 78.0891 165.006 92.2181 166.545 90.8637Z" fill="#2F2E41"/>
<path d="M371.996 206.268C372.231 206.278 372.461 206.195 372.645 206.034C372.829 205.873 372.955 205.645 373 205.392L399.883 44.4002C399.908 44.2469 399.903 44.0894 399.867 43.9385C399.832 43.7877 399.767 43.6472 399.677 43.5269C399.587 43.4066 399.474 43.3093 399.346 43.242C399.219 43.1746 399.079 43.1387 398.938 43.1369L276.632 41.5692H276.621C276.4 41.5701 276.186 41.6532 276.014 41.805C275.841 41.9568 275.721 42.1683 275.672 42.4052L243.981 198.171C243.95 198.323 243.949 198.481 243.979 198.633C244.01 198.786 244.07 198.929 244.156 199.053C244.242 199.177 244.351 199.279 244.477 199.351C244.602 199.424 244.74 199.466 244.882 199.473L371.996 206.268Z" fill="#E6E6E6"/>
<path d="M265.558 216.551C265.449 216.551 265.342 216.592 265.256 216.668C265.17 216.743 265.11 216.848 265.085 216.965L263.956 222.292C263.94 222.367 263.939 222.445 263.953 222.521C263.968 222.597 263.997 222.668 264.038 222.731C264.08 222.793 264.134 222.845 264.195 222.882C264.257 222.919 264.325 222.941 264.395 222.947L328.206 227.937C328.325 227.945 328.442 227.906 328.536 227.827C328.63 227.747 328.695 227.633 328.718 227.505L329.804 221.343C329.818 221.268 329.816 221.191 329.8 221.117C329.784 221.043 329.754 220.973 329.711 220.913C329.669 220.853 329.615 220.803 329.554 220.768C329.493 220.732 329.425 220.712 329.356 220.707L265.588 216.553C265.578 216.552 265.568 216.551 265.558 216.551Z" fill="#E6E6E6"/>
<path d="M343.085 247.728C343.2 247.738 343.314 247.702 343.408 247.628C343.501 247.554 343.568 247.446 343.596 247.323L344.979 241.147C344.995 241.071 344.997 240.992 344.983 240.916C344.97 240.839 344.941 240.767 344.899 240.704C344.857 240.641 344.804 240.588 344.741 240.551C344.679 240.513 344.611 240.491 344.54 240.485L263.05 234.214C262.94 234.205 262.83 234.237 262.738 234.307C262.647 234.376 262.581 234.479 262.55 234.596L261.113 239.932C261.093 240.009 261.088 240.089 261.099 240.168C261.11 240.246 261.137 240.321 261.178 240.387C261.219 240.453 261.273 240.507 261.336 240.547C261.398 240.587 261.468 240.611 261.54 240.617L343.085 247.728Z" fill="#E6E6E6"/>
<path d="M338.709 267.523C338.824 267.533 338.938 267.498 339.032 267.424C339.125 267.349 339.192 267.241 339.22 267.118L340.602 260.942C340.619 260.866 340.621 260.787 340.607 260.711C340.593 260.634 340.565 260.562 340.523 260.499C340.481 260.436 340.427 260.384 340.365 260.346C340.303 260.308 340.234 260.286 340.164 260.28L258.674 254.01C258.564 254 258.453 254.033 258.362 254.102C258.271 254.172 258.204 254.274 258.174 254.391L256.737 259.727C256.716 259.804 256.711 259.884 256.723 259.963C256.734 260.041 256.761 260.116 256.802 260.182C256.843 260.248 256.897 260.302 256.959 260.342C257.022 260.382 257.092 260.406 257.164 260.412L338.709 267.523Z" fill="#E6E6E6"/>
<path d="M301.177 301.482C301.293 301.496 301.41 301.462 301.505 301.388C301.6 301.314 301.668 301.204 301.695 301.079L304.619 288.212C304.636 288.136 304.638 288.058 304.625 287.982C304.612 287.906 304.584 287.833 304.543 287.77C304.502 287.707 304.449 287.655 304.387 287.616C304.326 287.578 304.258 287.555 304.188 287.548L254.144 282.917C254.028 282.908 253.912 282.945 253.817 283.022C253.723 283.098 253.656 283.209 253.629 283.334L251.135 295.683C251.12 295.757 251.119 295.834 251.134 295.908C251.148 295.983 251.176 296.053 251.216 296.114C251.257 296.176 251.309 296.227 251.369 296.264C251.429 296.302 251.495 296.325 251.564 296.332L301.177 301.482Z" fill="#6C63FF"/>
</g>
<defs>
<clipPath id="clip0">
<rect width="421" height="348" fill="white"/>
</clipPath>
</defs>
</svg>
